
        <svg xmlns="http://www.w3.org/2000/svg" xmlns:xlink="http://www.w3.org/1999/xlink" version="1.1" width="3240" 
        height="3240" viewBox="0 0 3240 3240">
			<rect fill="#facf39" width="3240" height="3240"/>
			<g transform="scale(12) translate(10, 10)">
				<defs id="SvgjsDefs20772"></defs><g id="SvgjsG20773" featureKey="rootContainer" transform="matrix(2.5,0,0,2.5,0,0)" fill="#facf39"><path xmlns="http://www.w3.org/2000/svg" d="M0 0h100v100H0z"></path></g><g id="SvgjsG20774" featureKey="4K7G0D-0" transform="matrix(1.1154115492648753,0,0,1.1154115492648753,69.5032519150074,45.96060785980835)" fill="#2d2d2d"><path xmlns="http://www.w3.org/2000/svg" d="M92.033,51.425c-0.02,0.377-0.023,0.759-0.058,1.132c0.824,0.591,2.369,1.258,2.299,1.75  c-0.071,0.498-1.74,0.706-2.696,1.039c-0.072,0.375-0.17,0.738-0.258,1.107c0.726,0.703,2.18,1.594,2.039,2.074  c-0.143,0.484-1.847,0.447-2.839,0.645c-0.124,0.357-0.249,0.711-0.389,1.061c0.621,0.803,1.926,1.887,1.717,2.34  c-0.207,0.457-1.878,0.182-2.889,0.232c-0.175,0.336-0.361,0.666-0.548,0.992c0.498,0.881,1.635,2.141,1.363,2.561  c-0.272,0.423-1.892-0.094-2.898-0.185c-0.22,0.306-0.444,0.607-0.676,0.904c0.368,0.943,1.315,2.353,0.986,2.731  c-0.329,0.377-1.854-0.359-2.837-0.591c-0.263,0.272-0.529,0.539-0.804,0.802c0.234,0.984,0.969,2.51,0.592,2.838  c-0.379,0.329-1.789-0.62-2.73-0.988c-0.297,0.23-0.599,0.456-0.904,0.676c0.089,1.008,0.604,2.629,0.182,2.9  c-0.421,0.271-1.681-0.866-2.562-1.364c-0.327,0.188-0.656,0.372-0.992,0.547c-0.053,1.01,0.224,2.679-0.232,2.888  c-0.454,0.209-1.537-1.097-2.337-1.716c-0.35,0.139-0.704,0.263-1.061,0.388c-0.198,0.991-0.162,2.697-0.646,2.84  c-0.48,0.141-1.369-1.315-2.073-2.043c-0.368,0.089-0.731,0.187-1.105,0.26c-0.334,0.955-0.543,2.626-1.039,2.696  c-0.492,0.07-1.158-1.477-1.75-2.299c-0.372,0.032-0.752,0.037-1.13,0.057c-0.47,0.893-0.918,2.546-1.426,2.546  s-0.954-1.653-1.426-2.546c-0.378-0.02-0.758-0.024-1.131-0.057c-0.593,0.822-1.258,2.369-1.749,2.299  c-0.498-0.072-0.706-1.741-1.04-2.696c-0.374-0.073-0.737-0.171-1.105-0.26c-0.706,0.728-1.595,2.181-2.074,2.04  c-0.484-0.142-0.448-1.848-0.647-2.84c-0.356-0.123-0.711-0.249-1.061-0.387c-0.801,0.618-1.885,1.924-2.341,1.718  c-0.456-0.21-0.178-1.88-0.229-2.891c-0.336-0.175-0.663-0.359-0.991-0.548c-0.88,0.498-2.141,1.638-2.562,1.366  c-0.422-0.272,0.095-1.895,0.183-2.903c-0.306-0.219-0.607-0.442-0.903-0.675c-0.942,0.367-2.354,1.316-2.732,0.989  c-0.378-0.329,0.358-1.856,0.591-2.84c-0.273-0.262-0.539-0.528-0.801-0.802c-0.985,0.233-2.511,0.971-2.84,0.591  c-0.328-0.379,0.622-1.79,0.99-2.731c-0.231-0.297-0.457-0.598-0.675-0.903c-1.007,0.09-2.629,0.604-2.902,0.182  c-0.271-0.421,0.868-1.681,1.367-2.562c-0.188-0.326-0.374-0.654-0.548-0.99c-1.01-0.053-2.68,0.224-2.889-0.234  c-0.208-0.453,1.098-1.537,1.718-2.336c-0.138-0.35-0.264-0.705-0.388-1.06c-0.991-0.198-2.698-0.161-2.839-0.646  c-0.141-0.479,1.314-1.368,2.04-2.072c-0.087-0.368-0.185-0.731-0.258-1.106c-0.955-0.334-2.625-0.541-2.696-1.039  c-0.069-0.49,1.477-1.157,2.3-1.75c-0.034-0.373-0.038-0.753-0.058-1.13c-0.893-0.471-2.545-0.917-2.545-1.426  c0-0.508,1.653-0.954,2.545-1.425c0.021-0.377,0.023-0.758,0.058-1.131c-0.824-0.591-2.37-1.257-2.3-1.748  c0.07-0.5,1.741-0.708,2.696-1.042c0.073-0.375,0.171-0.739,0.259-1.108c-0.727-0.706-2.181-1.595-2.04-2.074  c0.142-0.484,1.848-0.448,2.838-0.646c0.125-0.356,0.25-0.71,0.389-1.059c-0.62-0.8-1.925-1.884-1.718-2.339  c0.208-0.457,1.879-0.179,2.889-0.231c0.175-0.334,0.36-0.664,0.548-0.991c-0.498-0.88-1.636-2.14-1.365-2.563  c0.273-0.421,1.893,0.094,2.901,0.184c0.219-0.307,0.444-0.608,0.676-0.904c-0.37-0.942-1.318-2.352-0.989-2.73  c0.328-0.38,1.854,0.357,2.838,0.591c0.263-0.274,0.53-0.541,0.803-0.802c-0.233-0.985-0.969-2.51-0.591-2.84  c0.38-0.33,1.79,0.62,2.733,0.989c0.295-0.231,0.597-0.457,0.903-0.677c-0.089-1.006-0.605-2.628-0.182-2.9  c0.421-0.271,1.681,0.868,2.562,1.366c0.327-0.189,0.655-0.373,0.99-0.548c0.053-1.009-0.223-2.679,0.233-2.888  c0.454-0.209,1.537,1.097,2.338,1.717c0.349-0.14,0.704-0.263,1.061-0.389c0.198-0.991,0.161-2.696,0.645-2.837  c0.479-0.141,1.367,1.313,2.073,2.04c0.368-0.088,0.731-0.186,1.106-0.259c0.335-0.956,0.543-2.625,1.039-2.696  c0.491-0.07,1.158,1.477,1.749,2.299c0.372-0.033,0.754-0.038,1.13-0.056c0.472-0.892,0.918-2.544,1.426-2.544  s0.954,1.652,1.426,2.544c0.376,0.019,0.758,0.023,1.131,0.056c0.591-0.822,1.257-2.369,1.749-2.299  c0.498,0.072,0.707,1.742,1.042,2.696c0.375,0.073,0.738,0.171,1.106,0.259c0.704-0.726,1.595-2.18,2.074-2.038  c0.485,0.141,0.447,1.846,0.645,2.837c0.356,0.123,0.712,0.249,1.062,0.387c0.8-0.62,1.884-1.924,2.34-1.718  c0.456,0.21,0.177,1.879,0.229,2.89c0.336,0.173,0.664,0.359,0.992,0.548c0.881-0.5,2.141-1.638,2.561-1.366  c0.424,0.274-0.092,1.894-0.181,2.902c0.306,0.219,0.608,0.444,0.905,0.677c0.942-0.37,2.354-1.317,2.731-0.989  c0.378,0.329-0.359,1.854-0.592,2.837c0.272,0.263,0.539,0.531,0.801,0.802c0.986-0.231,2.512-0.968,2.84-0.588  c0.327,0.378-0.62,1.788-0.988,2.731c0.231,0.295,0.456,0.596,0.675,0.903c1.008-0.09,2.628-0.606,2.9-0.184  c0.271,0.42-0.866,1.679-1.366,2.56c0.189,0.328,0.374,0.658,0.549,0.994c1.011,0.051,2.68-0.224,2.888,0.232  c0.209,0.454-1.097,1.54-1.716,2.339c0.139,0.348,0.263,0.703,0.388,1.059c0.991,0.199,2.697,0.161,2.838,0.646  c0.142,0.478-1.312,1.367-2.039,2.073c0.088,0.367,0.185,0.732,0.258,1.107c0.957,0.333,2.624,0.541,2.694,1.036  c0.07,0.493-1.475,1.16-2.299,1.75c0.034,0.373,0.038,0.753,0.058,1.129c0.894,0.473,2.546,0.918,2.546,1.426  C94.579,50.508,92.927,50.954,92.033,51.425z M64.333,29.771c-11.17,0-20.228,9.058-20.228,20.228  c0,11.173,9.058,20.228,20.228,20.228c11.173,0,20.229-9.055,20.229-20.228C84.562,38.828,75.506,29.771,64.333,29.771z   M64.241,43.237V32.973c-3.739,0-7.195,1.21-10.003,3.255l6.034,8.308C61.388,43.723,62.757,43.237,64.241,43.237z M57.481,49.999  c0-0.727,0.121-1.431,0.332-2.088l-9.763-3.174c-0.538,1.66-0.833,3.426-0.833,5.262c0,1.835,0.295,3.605,0.833,5.261l9.764-3.171  C57.603,51.43,57.481,50.728,57.481,49.999z M70.672,47.911l9.763-3.174c-1.118-3.451-3.312-6.419-6.187-8.509l-6.035,8.308  C69.354,45.365,70.228,46.54,70.672,47.911z M68.213,55.312l6.035,8.307c2.874-2.091,5.068-5.059,6.187-8.51l-9.763-3.172  C70.228,53.307,69.354,54.48,68.213,55.312z M64.333,46.034c-2.104,0-3.813,1.708-3.813,3.813s1.709,3.812,3.813,3.812  c2.106,0,3.814-1.707,3.814-3.812S66.439,46.034,64.333,46.034z M54.238,63.619c2.808,2.047,6.264,3.254,10.003,3.254V56.608  c-1.484,0-2.854-0.483-3.969-1.298L54.238,63.619z"></path><g xmlns="http://www.w3.org/2000/svg"><path d="M28.907,40.077H26.35c-1.066,0-1.932-0.865-1.932-1.932c0-1.066,0.865-1.932,1.932-1.932h2.557   c1.066,0,1.932,0.865,1.932,1.932C30.838,39.212,29.973,40.077,28.907,40.077z"></path><path d="M26.946,51.932H18.87c-1.066,0-1.932-0.865-1.932-1.932c0-1.066,0.865-1.932,1.932-1.932h8.077   c1.066,0,1.932,0.865,1.932,1.932C28.878,51.066,28.013,51.932,26.946,51.932z"></path><path d="M24.984,63.785H6.86c-1.066,0-1.932-0.865-1.932-1.932s0.865-1.932,1.932-1.932h18.124c1.066,0,1.932,0.865,1.932,1.932   S26.051,63.785,24.984,63.785z"></path></g></g><g id="SvgjsG20775" featureKey="wPuqcM-0" transform="matrix(0.08020532052939722,0,0,0.08020532052939722,44.929419347000234,154.5781200339027)" fill="#facf39"><path d="M13.48 9.96 l-1.88 0 c-0.54 -2.52 -2.64 -2.98 -4.02 -2.98 c-2.6 0 -4.7 1.92 -4.7 5.7 c0 3.38 1.2 5.98 4.76 5.98 c1.26 0 3.44 -0.6 4.1 -3.94 l1.88 0 c-0.8 5.42 -5.2 5.66 -6.28 5.66 c-3.26 0 -6.46 -2.12 -6.46 -7.64 c0 -4.42 2.52 -7.48 6.7 -7.48 c3.7 0 5.62 2.3 5.9 4.7 z M24.259999999999998 12.879999999999999 l0 7.12 l-1.76 0 l0 -6.84 c0 -1.42 -0.4 -2.34 -2.08 -2.34 c-1.44 0 -2.92 0.84 -2.92 3.48 l0 5.7 l-1.76 0 l0 -14.36 l1.76 0 l0 5.3 l0.04 0 c0.5 -0.66 1.38 -1.7 3.06 -1.7 c1.62 0 3.66 0.66 3.66 3.64 z M28.42 12.719999999999999 l-1.62 0 c0.08 -2.5 1.74 -3.48 4.32 -3.48 c0.84 0 3.88 0.24 3.88 2.92 l0 6.02 c0 0.44 0.22 0.62 0.58 0.62 c0.16 0 0.38 -0.04 0.58 -0.08 l0 1.28 c-0.3 0.08 -0.56 0.2 -0.96 0.2 c-1.56 0 -1.8 -0.8 -1.86 -1.6 c-0.68 0.74 -1.74 1.7 -3.78 1.7 c-1.92 0 -3.28 -1.22 -3.28 -3.02 c0 -0.88 0.26 -2.92 3.18 -3.28 l2.9 -0.36 c0.42 -0.04 0.92 -0.2 0.92 -1.24 c0 -1.1 -0.8 -1.7 -2.46 -1.7 c-2 0 -2.28 1.22 -2.4 2.02 z M33.24 16.38 l0 -1.72 c-0.28 0.22 -0.72 0.38 -2.9 0.66 c-0.86 0.12 -2.24 0.38 -2.24 1.7 c0 1.14 0.58 1.82 1.9 1.82 c1.64 0 3.24 -1.06 3.24 -2.46 z M39.980000000000004 13.92 l0 6.08 l-1.76 0 l0 -10.46 l1.66 0 l0 1.74 l0.04 0 c0.7 -1.22 1.62 -2.04 2.94 -2.04 c0.22 0 0.32 0.02 0.46 0.06 l0 1.82 l-0.66 0 c-1.64 0 -2.68 1.28 -2.68 2.8 z M46.440000000000005 5.640000000000001 l0 14.36 l-1.76 0 l0 -14.36 l1.76 0 z M50.88 9.54 l0 10.46 l-1.76 0 l0 -10.46 l1.76 0 z M50.88 7.640000000000001 l-1.76 0 l0 -2 l1.76 0 l0 2 z M60.64 16.72 l1.76 0 c-0.06 0.5 -0.54 1.98 -1.86 2.86 c-0.48 0.32 -1.16 0.72 -2.84 0.72 c-2.94 0 -4.68 -2.22 -4.68 -5.24 c0 -3.24 1.56 -5.82 5.02 -5.82 c3.02 0 4.5 2.4 4.5 6.1 l-7.64 0 c0 2.18 1.02 3.44 3.04 3.44 c1.66 0 2.64 -1.28 2.7 -2.06 z M54.9 13.940000000000001 l5.82 0 c-0.1 -1.62 -0.78 -3.12 -2.92 -3.12 c-1.62 0 -2.9 1.5 -2.9 3.12 z M72.36 14.96 l0 5.04 l-1.94 0 l0 -14.36 l1.94 0 l0 6.96 l6.96 -6.96 l2.68 0 l-5.98 5.8 l6.14 8.56 l-2.52 0 l-5.02 -7.2 z M85.10000000000001 12.719999999999999 l-1.62 0 c0.08 -2.5 1.74 -3.48 4.32 -3.48 c0.84 0 3.88 0.24 3.88 2.92 l0 6.02 c0 0.44 0.22 0.62 0.58 0.62 c0.16 0 0.38 -0.04 0.58 -0.08 l0 1.28 c-0.3 0.08 -0.56 0.2 -0.96 0.2 c-1.56 0 -1.8 -0.8 -1.86 -1.6 c-0.68 0.74 -1.74 1.7 -3.78 1.7 c-1.92 0 -3.28 -1.22 -3.28 -3.02 c0 -0.88 0.26 -2.92 3.18 -3.28 l2.9 -0.36 c0.42 -0.04 0.92 -0.2 0.92 -1.24 c0 -1.1 -0.8 -1.7 -2.46 -1.7 c-2 0 -2.28 1.22 -2.4 2.02 z M89.92000000000002 16.38 l0 -1.72 c-0.28 0.22 -0.72 0.38 -2.9 0.66 c-0.86 0.12 -2.24 0.38 -2.24 1.7 c0 1.14 0.58 1.82 1.9 1.82 c1.64 0 3.24 -1.06 3.24 -2.46 z M98.40000000000002 18.06 l2.8 -8.52 l1.94 0 c-1.22 3.42 -2.42 6.84 -3.76 10.26 c-1.66 4.24 -1.84 4.48 -4.1 4.48 c-0.26 0 -0.46 -0.08 -0.74 -0.16 l0 -1.6 c0.22 0.08 0.58 0.18 1.06 0.18 c0.92 0 1.02 -0.26 1.86 -2.42 l-3.88 -10.74 l2 0 l2.78 8.52 l0.04 0 z M106.46000000000001 5.640000000000001 l0 14.36 l-1.76 0 l0 -14.36 l1.76 0 z M108.50000000000001 14.76 c0 -2.7 1.52 -5.52 4.86 -5.52 s4.86 2.82 4.86 5.52 s-1.52 5.52 -4.86 5.52 s-4.86 -2.82 -4.86 -5.52 z M110.32000000000001 14.76 c0 1.4 0.52 4 3.04 4 s3.04 -2.6 3.04 -4 s-0.52 -4 -3.04 -4 s-3.04 2.6 -3.04 4 z M122.22000000000001 13.92 l0 6.08 l-1.76 0 l0 -10.46 l1.66 0 l0 1.74 l0.04 0 c0.7 -1.22 1.62 -2.04 2.94 -2.04 c0.22 0 0.32 0.02 0.46 0.06 l0 1.82 l-0.66 0 c-1.64 0 -2.68 1.28 -2.68 2.8 z"></path></g><g id="SvgjsG20776" featureKey="Li3fkV-0" transform="matrix(1.3647624610148423,0,0,1.3647624610148423,42.72151850544287,155.43363762228364)" fill="#2d2d2d"><path d="M16.605 9.649 c0.91776 0.9099 0.9102 2.226 0.89856 4.2182 c-0.00091796 0.14832 -0.0016992 0.302 -0.0023438 0.46118 c-0.0044532 1.1823 -0.0075976 2.0366 -0.13172 2.757 c-0.10568 0.6142 -0.34974 1.4995 -1.2436 2.0954 c-1.1321 0.75466 -2.8232 0.77168 -6.5282 0.8087 c-0.57862 0.0057618 -1.1122 0.010078 -1.6046 0.010078 c-2.9354 0 -4.411 -0.15537 -5.3538 -1.0922 c-0.98198 -0.9757 -0.97648 -2.4126 -0.96838 -4.5876 c0.0090234 -2.4268 0.014512 -3.8916 1.2447 -4.801 c1.0614 -0.7845 2.6028 -0.80516 5.9798 -0.85054 l0.67396 -0.0092774 c4.2088 -0.060156 5.9508 -0.085136 7.0354 0.99024 z M15.171 13.854199999999999 c0.006543 -1.1448 0.013457 -2.3288 -0.20864 -2.5488 c-0.27556 -0.27322 -1.5123 -0.33638 -3.1584 -0.33638 c-0.67736 0 -1.4242 0.010723 -2.2018 0.021836 l-0.67606 0.0092774 c-2.4194 0.032442 -4.1674 0.055976 -4.625 0.39406 c-0.2888 0.21346 -0.2935 1.4744 -0.29898 2.9346 c-0.0050976 1.3559 -0.0099414 2.6366 0.28016 2.9248 c0.4554 0.45254 2.9138 0.42782 5.2914 0.40428 c2.7302 -0.027206 4.7028 -0.046954 5.258 -0.4171 c0.32686 -0.2179 0.33104 -1.3516 0.33692 -2.9208 c0.00052734 -0.16074 0.0014453 -0.316 0.0023632 -0.46588 z M29.7092 8.475 l15.938 0 l0 2.3477 l-6.7954 0 l0 9.0932 l-2.3476 0 l0 -9.0932 l-6.7946 0 l0 -2.3477 z M63.94500000000001 9.649 c0.91776 0.9099 0.9102 2.226 0.89856 4.2182 c-0.00091796 0.14832 -0.0016992 0.302 -0.0023438 0.46118 c-0.0044532 1.1823 -0.0075976 2.0366 -0.13172 2.757 c-0.10568 0.6142 -0.34974 1.4995 -1.2436 2.0954 c-1.1321 0.75466 -2.8232 0.77168 -6.5282 0.8087 c-0.57862 0.0057618 -1.1122 0.010078 -1.6046 0.010078 c-2.9354 0 -4.411 -0.15537 -5.3538 -1.0922 c-0.98198 -0.9757 -0.97648 -2.4126 -0.96838 -4.5876 c0.0090234 -2.4268 0.014512 -3.8916 1.2447 -4.801 c1.0614 -0.7845 2.6028 -0.80516 5.9798 -0.85054 l0.67396 -0.0092774 c4.2088 -0.060156 5.9508 -0.085136 7.0354 0.99024 z M62.511 13.854199999999999 c0.006543 -1.1448 0.013457 -2.3288 -0.20864 -2.5488 c-0.27556 -0.27322 -1.5123 -0.33638 -3.1584 -0.33638 c-0.67736 0 -1.4242 0.010723 -2.2018 0.021836 l-0.67606 0.0092774 c-2.4194 0.032442 -4.1674 0.055976 -4.625 0.39406 c-0.2888 0.21346 -0.2935 1.4744 -0.29898 2.9346 c-0.0050976 1.3559 -0.0099414 2.6366 0.28016 2.9248 c0.4554 0.45254 2.9138 0.42782 5.2914 0.40428 c2.7302 -0.027206 4.7028 -0.046954 5.258 -0.4171 c0.32686 -0.2179 0.33104 -1.3516 0.33692 -2.9208 c0.00052734 -0.16074 0.0014453 -0.316 0.0023632 -0.46588 z M80.5708 8.624 l0.000019531 11.376 l-2.3246 0 l0 -9.022 l-1.1473 0.014648 l-0.029688 -2.3244 z M98.84500000000001 9.649 c0.91776 0.9099 0.9102 2.226 0.89856 4.2182 c-0.00091796 0.14832 -0.0016992 0.302 -0.0023438 0.46118 c-0.0044532 1.1823 -0.0075976 2.0366 -0.13172 2.757 c-0.10568 0.6142 -0.34974 1.4995 -1.2436 2.0954 c-1.1321 0.75466 -2.8232 0.77168 -6.5282 0.8087 c-0.57862 0.0057618 -1.1122 0.010078 -1.6046 0.010078 c-2.9354 0 -4.411 -0.15537 -5.3538 -1.0922 c-0.98198 -0.9757 -0.97648 -2.4126 -0.96838 -4.5876 c0.0090234 -2.4268 0.014512 -3.8916 1.2447 -4.801 c1.0614 -0.7845 2.6028 -0.80516 5.9798 -0.85054 l0.67396 -0.0092774 c4.2088 -0.060156 5.9508 -0.085136 7.0354 0.99024 z M97.411 13.854199999999999 c0.006543 -1.1448 0.013457 -2.3288 -0.20864 -2.5488 c-0.27556 -0.27322 -1.5123 -0.33638 -3.1584 -0.33638 c-0.67736 0 -1.4242 0.010723 -2.2018 0.021836 l-0.67606 0.0092774 c-2.4194 0.032442 -4.1674 0.055976 -4.625 0.39406 c-0.2888 0.21346 -0.2935 1.4744 -0.29898 2.9346 c-0.0050976 1.3559 -0.0099414 2.6366 0.28016 2.9248 c0.4554 0.45254 2.9138 0.42782 5.2914 0.40428 c2.7302 -0.027206 4.7028 -0.046954 5.258 -0.4171 c0.32686 -0.2179 0.33104 -1.3516 0.33692 -2.9208 c0.00052734 -0.16074 0.0014453 -0.316 0.0023632 -0.46588 z M118.00500000000001 9.649 c0.91776 0.9099 0.9102 2.226 0.89856 4.2182 c-0.00091796 0.14832 -0.0016992 0.302 -0.0023438 0.46118 c-0.0044532 1.1823 -0.0075976 2.0366 -0.13172 2.757 c-0.10568 0.6142 -0.34974 1.4995 -1.2436 2.0954 c-1.1321 0.75466 -2.8232 0.77168 -6.5282 0.8087 c-0.57862 0.0057618 -1.1122 0.010078 -1.6046 0.010078 c-2.9354 0 -4.411 -0.15537 -5.3538 -1.0922 c-0.98198 -0.9757 -0.97648 -2.4126 -0.96838 -4.5876 c0.0090234 -2.4268 0.014512 -3.8916 1.2447 -4.801 c1.0614 -0.7845 2.6028 -0.80516 5.9798 -0.85054 l0.67396 -0.0092774 c4.2088 -0.060156 5.9508 -0.085136 7.0354 0.99024 z M116.571 13.854199999999999 c0.006543 -1.1448 0.013457 -2.3288 -0.20864 -2.5488 c-0.27556 -0.27322 -1.5123 -0.33638 -3.1584 -0.33638 c-0.67736 0 -1.4242 0.010723 -2.2018 0.021836 l-0.67606 0.0092774 c-2.4194 0.032442 -4.1674 0.055976 -4.625 0.39406 c-0.2888 0.21346 -0.2935 1.4744 -0.29898 2.9346 c-0.0050976 1.3559 -0.0099414 2.6366 0.28016 2.9248 c0.4554 0.45254 2.9138 0.42782 5.2914 0.40428 c2.7302 -0.027206 4.7028 -0.046954 5.258 -0.4171 c0.32686 -0.2179 0.33104 -1.3516 0.33692 -2.9208 c0.00052734 -0.16074 0.0014453 -0.316 0.0023632 -0.46588 z"></path></g>
			</g>
		</svg>
	